<?xml version="1.0" encoding="iso-8859-1"?>
<!-- Generator: Adobe Illustrator 19.0.0, SVG Export Plug-In . SVG Version: 6.00 Build 0)  -->
<svg version="1.1" id="Capa_1" xmlns="http://www.w3.org/2000/svg" xmlns:xlink="http://www.w3.org/1999/xlink" x="0px" y="0px"
	 viewBox="0 0 465 465" style="enable-background:new 0 0 465 465;" xml:space="preserve">
<path style="fill:#4C4C4C;" d="M286.499,120.119C274.693,104.923,264.497,91.8,235.786,91.8c-4.143,0-7.5-3.358-7.5-7.5V17.786
	c-4.994,1.989-11.642,5.167-18.817,10.055c-17.326,11.8-30.515,28.244-39.322,48.958h4.17c4.143,0,7.5,3.358,7.5,7.5
	c0,4.141-3.356,7.498-7.497,7.5l0.001,56.618h17.073c10.863-12.268,27.169-19.5,44.392-19.5c18.561,0,36.067,8.389,46.831,22.439
	c2.062,2.691,2.062,6.431,0,9.122c-10.764,14.05-28.27,22.439-46.831,22.439c-17.223,0-33.53-7.232-44.392-19.5h-17.072l0,20.482
	c4.14,0.003,7.495,3.359,7.495,7.5c0,23.358,18.995,42.5,42.343,42.671c4.121,0.03,7.445,3.379,7.445,7.5v62.115h48.683v-32.327
	c0-29.449,22.332-53.778,50.951-56.94l10.481-58.364C311.133,151.793,298.138,135.098,286.499,120.119z"/>
<rect x="295.288" y="405" style="fill:#FF9926;" width="34.787" height="45"/>
<rect x="231.605" y="318.686" style="fill:#FF9926;" width="48.683" height="15"/>
<rect x="172.362" y="405" style="fill:#FF9926;" width="44.243" height="45"/>
<path style="fill:#FECC33;" d="M174.317,163.418c-4.143,0-7.5-3.358-7.5-7.5s3.357-7.5,7.5-7.5h0.004L174.32,91.8
	c-0.001,0-0.002,0-0.003,0h-15.052c-58.112,0-105.391,47.278-105.391,105.391V390h162.73V248.534
	c-28.053-3.868-49.788-28.09-49.788-57.134c0-4.142,3.357-7.5,7.5-7.5c0.002,0,0.003,0,0.005,0l0-20.482H174.317z"/>
<rect x="113.118" y="405" style="fill:#E43017;" width="44.244" height="45"/>
<rect x="53.875" y="405" style="fill:#FF9926;" width="44.243" height="45"/>
<path style="fill:#FECC33;" d="M295.288,271.359V390h34.787V252.571c0-4.142,3.357-7.5,7.5-7.5c0.001,0,0.002,0,0.003,0v-16
	c-0.001,0-0.002,0-0.003,0C314.258,229.071,295.288,248.041,295.288,271.359z"/>
<polygon style="fill:#FF9926;" points="392.875,336.088 408.949,336.088 410.53,315.393 391.294,315.393 "/>
<path style="fill:#FFFFFF;" d="M266.613,155.918c-7.962-7.598-19.086-12-30.827-12s-22.865,4.402-30.827,12
	c7.962,7.598,19.086,12,30.827,12S258.651,163.516,266.613,155.918z"/>
<path d="M357.5,142.099c-34.927,0-46.695-15.147-59.156-31.184c-6.766-8.708-14.028-18.046-25.058-24.748V7.5
	c0-4.142-3.357-7.5-7.5-7.5s-7.5,3.358-7.5,7.5v72.175c-4.486-1.272-9.449-2.173-15-2.597V7.5c0-2.25-1.011-4.382-2.752-5.806
	c-1.742-1.425-4.034-1.991-6.237-1.544c-2.331,0.472-56.047,12.072-80.354,76.774C90.02,79.719,38.875,132.591,38.875,197.191V457.5
	c0,4.142,3.357,7.5,7.5,7.5h177.73c4.143,0,7.5-3.358,7.5-7.5V348.686h48.683V457.5c0,4.142,3.357,7.5,7.5,7.5h49.787
	c4.143,0,7.5-3.358,7.5-7.5V252.571c0-4.141-3.356-7.498-7.497-7.5c-0.001,0-0.002,0-0.003,0c-4.143,0-7.5,3.358-7.5,7.5V390
	h-34.787V271.359c0-23.318,18.97-42.288,42.287-42.288c0.001,0,0.002,0,0.003,0c3.63-0.001,6.738-2.601,7.379-6.174l11.818-65.808
	c0.245,0.001,0.479,0.011,0.725,0.011c4.143,0,7.5-3.358,7.5-7.5S361.642,142.099,357.5,142.099z M330.075,450h-34.787v-45h34.787
	V450z M98.118,450H53.875v-45h44.243V450z M157.362,405v45h-44.244v-45H157.362z M216.605,405v45h-44.243v-45H216.605z
	 M280.288,318.686v15h-48.683v-15H280.288z M331.239,214.419c-28.619,3.162-50.951,27.491-50.951,56.94v32.327h-48.683v-62.115
	c0-4.121-3.324-7.47-7.445-7.5c-23.348-0.171-42.343-19.313-42.343-42.671c0-4.141-3.355-7.497-7.495-7.5c-0.002,0-0.003,0-0.005,0
	c-4.143,0-7.5,3.358-7.5,7.5c0,29.044,21.735,53.266,49.788,57.134V390H53.875V197.191c0-58.113,47.278-105.391,105.391-105.391
	h15.052c0.001,0,0.002,0,0.003,0c4.141-0.001,7.497-3.359,7.497-7.5c0-4.142-3.357-7.5-7.5-7.5h-4.17
	c8.807-20.714,21.996-37.159,39.322-48.958c7.176-4.888,13.823-8.066,18.817-10.055V84.3c0,4.142,3.357,7.5,7.5,7.5
	c28.711,0,38.907,13.123,50.713,28.319c11.639,14.979,24.635,31.674,55.222,35.937L331.239,214.419z"/>
<path d="M424.127,302.796c-1.42-1.532-3.413-2.403-5.502-2.403h-35.426c-2.089,0-4.082,0.871-5.502,2.403
	c-1.419,1.532-2.136,3.586-1.977,5.668l2.727,35.695c0.299,3.909,3.558,6.929,7.479,6.929h7.486v9.025h-2.486
	c-4.143,0-7.5,3.358-7.5,7.5s3.357,7.5,7.5,7.5h2.486V457.5c0,4.142,3.357,7.5,7.5,7.5s7.5-3.358,7.5-7.5v-82.387h2.486
	c4.143,0,7.5-3.358,7.5-7.5s-3.357-7.5-7.5-7.5h-2.486v-9.025h7.486c3.921,0,7.18-3.02,7.479-6.929l2.727-35.695
	C426.263,306.382,425.546,304.328,424.127,302.796z M408.949,336.088h-16.074l-1.581-20.695h19.236L408.949,336.088z"/>
<path d="M166.817,155.918c0,4.142,3.357,7.5,7.5,7.5h0.004h17.072c10.863,12.268,27.169,19.5,44.392,19.5
	c18.561,0,36.067-8.389,46.831-22.439c2.062-2.691,2.062-6.431,0-9.122c-10.764-14.05-28.27-22.439-46.831-22.439
	c-17.223,0-33.53,7.232-44.392,19.5h-17.073h-0.004C170.175,148.418,166.817,151.776,166.817,155.918z M235.786,143.918
	c11.741,0,22.865,4.402,30.827,12c-7.962,7.598-19.086,12-30.827,12s-22.865-4.402-30.827-12
	C212.921,148.32,224.045,143.918,235.786,143.918z"/>
<g>
</g>
<g>
</g>
<g>
</g>
<g>
</g>
<g>
</g>
<g>
</g>
<g>
</g>
<g>
</g>
<g>
</g>
<g>
</g>
<g>
</g>
<g>
</g>
<g>
</g>
<g>
</g>
<g>
</g>
</svg>
